<!--?xml version="1.0" standalone="no"?-->              <svg id="sw-js-blob-svg" viewBox="0 0 100 100" xmlns="http://www.w3.org/2000/svg">                    <defs>                         <linearGradient id="sw-gradient" x1="0" x2="1" y1="1" y2="0">                            <stop id="stop1" stop-color="rgba(79, 70, 229, 1)" offset="0%"></stop>                            <stop id="stop2" stop-color="rgba(165, 180, 252, 1)" offset="100%"></stop>                        </linearGradient>                    </defs>                <path fill="url(#sw-gradient)" d="M21,-25.5C26.4,-20.5,29.4,-13.1,31.1,-5.2C32.8,2.7,33.3,11.1,30.7,19.8C28.2,28.6,22.6,37.7,14.6,41C6.6,44.3,-3.9,41.9,-11.6,36.9C-19.4,32,-24.4,24.5,-29.4,16.6C-34.3,8.7,-39.2,0.5,-38.1,-6.9C-37.1,-14.3,-30,-20.8,-22.7,-25.4C-15.3,-30,-7.7,-32.6,0.1,-32.7C7.8,-32.8,15.6,-30.4,21,-25.5Z" width="100%" height="100%" transform="translate(50 50)" stroke-width="0" style="transition: all 0.3s ease 0s;"></path>              </svg>