<svg id="sw-js-blob-svg" viewBox="0 0 100 100" xmlns="http://www.w3.org/2000/svg" width="1000" height="auto">                    <defs>                         <linearGradient id="sw-gradient" x1="0" x2="1" y1="1" y2="0">                            <stop id="stop1" stop-color="rgba(165, 180, 252, 1)" offset="0%"></stop>                            <stop id="stop2" stop-color="rgba(55, 48, 163, 1)" offset="100%"></stop>                        </linearGradient>                    </defs>                <path fill="url(#sw-gradient)" d="M26.1,-31.2C34,-24.4,40.7,-16.4,42.2,-7.5C43.8,1.4,40.1,11.2,34.9,20C29.6,28.7,22.8,36.3,14.4,39.2C6,42,-3.9,40.1,-12.7,36.3C-21.5,32.5,-29.1,26.9,-34.5,19.2C-39.9,11.4,-43,1.7,-41.1,-6.9C-39.2,-15.5,-32.3,-22.9,-24.7,-29.8C-17,-36.6,-8.5,-42.9,0.3,-43.2C9.1,-43.6,18.2,-38,26.1,-31.2Z" width="100%" height="100%" transform="translate(50 50)" stroke-width="0" style="transition: all 0.3s ease 0s;"></path>              </svg>